<svg width="24" height="24" viewBox="0 0 24 24" fill="none" xmlns="http://www.w3.org/2000/svg">
<path d="M11.6399 23.3486C5.2171 23.3486 0 18.3401 0 12.1743C0 6.00841 5.2171 1 11.6399 1C18.0627 1 23.2798 6.00841 23.2798 12.1743C23.2798 18.3401 18.0627 23.3486 11.6399 23.3486ZM11.6399 21.1419C16.8119 21.1419 20.9923 17.1394 20.9923 12.1743C20.9923 7.20913 16.8119 3.19591 11.6399 3.19591C6.46785 3.19591 2.2874 7.20913 2.2874 12.1743C2.2874 17.1394 6.46785 21.1419 11.6399 21.1419ZM11.3807 14.3269C10.7046 14.3269 10.3215 14.0132 10.3215 13.4074V13.2885C10.3215 12.3041 10.9075 11.7416 11.7075 11.2115C12.6653 10.5733 13.1385 10.238 13.1385 9.5565C13.1385 8.82092 12.5188 8.30169 11.6061 8.30169C10.93 8.30169 10.3891 8.61538 10.0173 9.21034L9.83698 9.42668C9.61163 9.71876 9.34119 9.88102 8.92427 9.88102C8.47356 9.88102 8.04537 9.5565 8.04537 9.03727C8.04537 8.84255 8.07917 8.65866 8.14679 8.47476C8.4961 7.45794 9.81446 6.61419 11.7413 6.61419C13.7357 6.61419 15.4259 7.64183 15.4259 9.44831C15.4259 10.7031 14.7048 11.3197 13.6005 12.0228C12.8681 12.4772 12.4624 12.8558 12.4286 13.4183C12.4286 13.4507 12.4286 13.5048 12.4286 13.5481C12.3948 13.9916 12.0004 14.3269 11.3807 14.3269ZM11.3694 17.6478C10.6483 17.6478 10.0511 17.1394 10.0511 16.4579C10.0511 15.7873 10.637 15.2789 11.3694 15.2789C12.0906 15.2789 12.6878 15.7764 12.6878 16.4579C12.6878 17.1394 12.0906 17.6478 11.3694 17.6478Z" fill="currentColor"/>
</svg>