<svg width="28" height="24" viewBox="0 0 28 24" fill="none" xmlns="http://www.w3.org/2000/svg">
<g clip-path="url(#clip0_48_502)">
<path d="M1.181 12.3697C0.447175 12.3697 0 11.8767 0 11.2941C0 10.9804 0.149058 10.6555 0.447175 10.4089L12.3947 0.605041C12.8993 0.201681 13.4496 0 14 0C14.5504 0 15.1007 0.201681 15.6052 0.605041L21.2694 5.26611V3.27171C21.2694 2.7787 21.6134 2.45377 22.1294 2.45377H23.6773C24.1818 2.45377 24.5142 2.7787 24.5142 3.27171V7.92156L27.5529 10.4089C27.8509 10.6555 28 10.9804 28 11.2941C28 11.8767 27.5529 12.3697 26.8304 12.3697C26.475 12.3697 26.1539 12.1905 25.8788 11.9552L24.5142 10.8459V21.3669C24.5142 23.0251 23.4939 24 21.7625 24H6.24897C4.50613 24 3.48567 23.0251 3.48567 21.3669V10.8459L2.1212 11.9552C1.84603 12.1905 1.53644 12.3697 1.181 12.3697ZM17.3137 15.2941V21.8038H21.1662C21.8772 21.8038 22.267 21.4118 22.267 20.7058V8.99719L14.493 2.62184C14.3325 2.48739 14.1605 2.43136 14 2.43136C13.8395 2.43136 13.6675 2.48739 13.5184 2.62184L5.73301 8.99719V20.7058C5.73301 21.4118 6.12285 21.8038 6.83374 21.8038H10.6863V15.2941C10.6863 14.7675 11.0418 14.4314 11.5807 14.4314H16.4308C16.9697 14.4314 17.3137 14.7675 17.3137 15.2941Z" 
      fill="currentColor"/>
</g>
<defs>
<clipPath id="clip0_48_502">
<rect width="28" height="24" fill="currentColor"/>
</clipPath>
</defs>
</svg>