<svg width="22" height="24" viewBox="0 0 22 24" fill="none" xmlns="http://www.w3.org/2000/svg">
<g clip-path="url(#clip0_48_479)">
<path d="M4.16911 24C1.42391 24 0 22.7585 0 20.3641V3.63605C0 1.25266 1.42391 0 4.16911 0H10.3522C11.9557 0 12.8408 0.221711 13.9184 1.16398L20.6531 7.08363C21.7692 8.05916 22 8.76863 22 10.3095V20.3641C22 22.7474 20.5762 24 17.8310 24H4.16911ZM4.37436 21.8273H17.6129C18.8572 21.8273 19.4858 21.262 19.4858 20.2311V10.5977H12.5715C10.7499 10.5977 9.83909 9.83284 9.83909 8.24761V2.17276H4.37436C3.13004 2.17276 2.5143 2.74919 2.5143 3.76907V20.2311C2.5143 21.262 3.13004 21.8273 4.37436 21.8273ZM12.8024 8.69102H19.1394L12.0583 2.47206V8.03699C12.0583 8.49148 12.2764 8.69102 12.8024 8.69102Z" 
      fill="currentColor"/>
</g>
<defs>
<clipPath id="clip0_48_479">
<rect width="22" height="24" fill="currentColor"/>
</clipPath>
</defs>
</svg>