<svg width="25" height="24" viewBox="0 0 25 24" fill="none" xmlns="http://www.w3.org/2000/svg">
<path d="M12.5 24C5.6026 24 0 18.6214 0 12C0 5.37849 5.6026 0 12.5 0C19.3973 0 25 5.37849 25 12C25 18.6214 19.3973 24 12.5 24ZM12.5 16.0077C15.9487 16.0077 18.5987 17.181 19.8814 18.5401C21.527 16.8209 22.5435 14.5208 22.5435 12C22.5435 6.66794 18.0542 2.35817 12.5 2.35817C6.94577 2.35817 2.45642 6.66794 2.45642 12C2.45642 14.5208 3.47288 16.8209 5.11858 18.5401C6.40124 17.181 9.06338 16.0077 12.5 16.0077ZM12.5 14.1026C10.1646 14.0793 8.34945 12.1974 8.33735 9.69988C8.32524 7.35331 10.1766 5.40173 12.5 5.40173C14.8354 5.40173 16.6626 7.35331 16.6626 9.69988C16.6626 12.1974 14.8475 14.1142 12.5 14.1026Z" 
      fill="currentColor"/>
</svg>